# xmcd
#
# Track frame offsets:
#	150
#	20835
#	30745
#	41395
#	56050
#	74730
#	90757
#	100445
#	112007
#	121317
#
# Disc length: 1895 seconds
#
# Revision: 0
# Processed by: cddbd v1.4PL0 Copyright (c) Steve Scherf et al.
# Submitted via: EasyCDDAExtractor 4.6.9.1
#
DISCID=8807650a
DTITLE=Johnny Farago - Chante Elvis Presley
DYEAR=1995
DGENRE=Country
TTITLE0=Je Me Souviens D'Elvis Presley
TTITLE1=Hurt
TTITLE2=Heartbreak Hotel
TTITLE3=It's Now Or Never
TTITLE4=American Trilogy
TTITLE5=Suspicious Minds
TTITLE6=All Shook Up
TTITLE7=I Want You, I Need You, I Love You
TTITLE8=Surrender
TTITLE9=My Way/ Comme D'habitude
EXTD=
EXTT0=
EXTT1=
EXTT2=
EXTT3=
EXTT4=
EXTT5=
EXTT6=
EXTT7=
EXTT8=
EXTT9=
PLAYORDER=
